<svg version="1.1" id="Layer_1" xmlns="http://www.w3.org/2000/svg" xmlns:xlink="http://www.w3.org/1999/xlink" x="0px" y="0px"
	 width="100%" viewBox="0 0 784 1024" enable-background="new 0 0 784 1024" xml:space="preserve">
<path fill="white" opacity="1.000000" stroke="none" 
	d="
M382.739929,325.651733 
	C400.215240,316.710510 417.972961,310.197052 437.456360,308.592285 
	C483.396271,304.808502 522.328308,322.650848 559.104370,347.299744 
	C570.302551,354.805237 581.277649,362.686371 591.134827,371.951355 
	C604.409485,384.428558 616.062622,398.279999 626.017273,413.561676 
	C635.323059,427.847198 642.929626,443.050934 648.768250,458.982483 
	C654.829834,475.522552 657.328064,492.835175 655.779419,510.525543 
	C655.185791,517.307007 654.892273,524.156250 653.204163,530.787109 
	C652.644165,532.987122 654.079163,534.197266 654.766357,535.809509 
	C655.507874,537.549255 655.373169,539.080933 653.654358,540.164612 
	C652.289612,541.025024 650.868896,541.235779 649.442383,540.254578 
	C647.847900,539.157776 647.028503,537.194275 648.010071,535.911560 
	C653.468567,528.777710 649.935486,521.120239 649.414368,513.770630 
	C648.163635,496.130432 644.784790,478.837189 639.658203,461.892273 
	C633.474731,441.454498 624.768738,422.228821 610.910828,405.837128 
	C604.058716,397.732239 596.201172,390.443024 588.495911,383.102448 
	C578.854858,373.917725 569.858765,364.057373 559.555481,355.562134 
	C549.567749,347.327026 538.196655,341.390289 526.456787,336.303986 
	C514.397888,331.079407 502.543732,325.390442 490.153503,320.870544 
	C466.316956,312.175140 442.250641,312.290344 417.885010,317.685333 
	C403.706543,320.824707 391.566742,328.780731 378.452820,334.438202 
	C376.151062,335.431183 373.014893,338.972565 371.178864,335.457733 
	C369.397125,332.046722 374.175262,331.559113 376.161835,329.946381 
	C378.090363,328.380798 380.327026,327.194824 382.739929,325.651733 
z"/>
<path fill="white" opacity="1.000000" stroke="none" 
	d="
M272.246277,557.421753 
	C273.078949,546.589294 277.009247,537.797058 284.756897,530.574463 
	C290.595062,525.131958 296.100433,519.304688 301.460754,513.383240 
	C312.608063,501.068909 314.797913,485.532257 316.804932,469.907318 
	C319.955963,445.376587 306.589783,429.340546 289.131470,415.324371 
	C288.096924,414.493805 286.987152,413.752747 285.994019,412.877411 
	C285.678345,412.599152 285.627625,412.020203 285.357819,411.327637 
	C288.317841,410.020325 290.721100,411.495819 292.838562,412.793671 
	C312.016754,424.548676 326.299805,443.971527 324.145538,469.710510 
	C322.116882,493.948517 311.677094,512.676453 294.262207,528.546082 
	C287.222168,534.961426 280.466370,541.741516 278.864777,551.808716 
	C277.951080,557.551758 277.145630,563.312683 276.347107,569.073242 
	C274.837952,579.960205 269.582397,588.415466 260.171753,594.210144 
	C253.077515,598.578491 245.500793,601.704712 237.731735,604.791382 
	C229.595200,608.023926 221.824432,608.829346 212.783875,607.888428 
	C213.777634,616.747864 216.499557,624.574280 220.535980,632.053406 
	C224.468567,639.340149 230.440033,645.102905 235.726471,651.594421 
	C232.843521,653.137756 231.329300,651.519775 229.678040,650.548279 
	C219.911285,644.801758 213.842911,635.931458 209.353195,625.893250 
	C206.507812,619.531433 203.468063,613.181580 202.421890,606.170349 
	C202.237656,604.935608 201.829285,603.969727 200.713791,603.311646 
	C192.400818,598.406311 184.950623,592.230774 176.423386,587.560547 
	C167.048325,582.425964 156.914871,581.549805 146.896896,581.590576 
	C128.949234,581.663574 117.244865,572.544922 108.236786,558.370117 
	C103.115387,550.311279 100.816132,541.295959 99.845711,531.957397 
	C99.312492,526.826111 100.139854,521.814758 104.062996,517.827148 
	C106.826195,519.364563 105.544403,521.644653 105.487694,523.383240 
	C104.908562,541.137512 111.921181,555.683716 124.072319,568.108826 
	C130.763275,574.950623 139.609390,575.779114 148.222748,575.428833 
	C166.817780,574.672607 181.785126,582.625427 195.529663,593.752747 
	C205.139481,601.532654 216.034195,605.407715 228.051071,603.451843 
	C246.070221,600.519226 271.293152,585.054688 271.801392,559.812866 
	C271.814636,559.155334 272.020599,558.501709 272.246277,557.421753 
z"/>
<path fill="white" opacity="1.000000" stroke="none" 
	d="
M536.775269,681.722717 
	C557.020996,671.659790 576.585999,661.181824 594.306030,645.974976 
	C594.883789,649.543396 593.479370,650.847839 592.501770,652.255432 
	C585.008057,663.044678 574.544312,670.478577 563.628845,677.273193 
	C551.326355,684.931274 538.528381,691.705383 525.263855,697.589355 
	C503.545959,707.223083 480.850525,713.262817 457.483795,717.435974 
	C439.661530,720.618958 421.823425,721.563171 403.813660,721.358948 
	C395.085724,721.259949 386.704346,718.908752 378.116974,717.938049 
	C376.581238,717.764526 374.396606,717.345215 374.495758,715.212341 
	C374.608917,712.777771 376.798950,712.742249 378.663879,712.697632 
	C392.645508,712.362976 406.622131,712.955811 420.618530,711.923889 
	C451.873383,709.619446 482.142090,703.112244 511.400330,691.929504 
	C519.797546,688.720032 528.084534,685.222351 536.775269,681.722717 
z"/>
<path fill="white" opacity="1.000000" stroke="none" 
	d="
M180.991470,388.858154 
	C192.975845,384.920135 204.766266,382.220001 217.100418,382.750153 
	C218.264618,382.800201 219.449799,382.704742 220.589996,382.891754 
	C222.363525,383.182587 224.711334,383.312836 224.707565,385.647278 
	C224.703659,388.058258 222.426453,388.120300 220.572205,388.204468 
	C199.748840,389.149872 180.300140,394.801941 162.177368,405.106628 
	C150.086136,411.981750 139.101929,420.307922 129.488297,430.335938 
	C126.407234,433.549744 123.836090,437.321625 121.412140,441.083313 
	C113.922729,452.706146 102.894859,457.805695 89.669189,460.447144 
	C75.337090,463.309540 61.087250,466.573853 46.629047,468.802399 
	C43.699455,469.253967 40.794582,469.878754 37.665161,468.587311 
	C38.300308,465.523438 40.628208,465.143555 42.869774,464.717712 
	C61.356869,461.205627 79.581154,456.768219 97.367027,450.488068 
	C102.521530,448.668060 105.854439,445.168671 108.623428,441.142853 
	C120.801201,423.437469 137.126511,410.546967 155.485947,399.953583 
	C163.439270,395.364502 171.990845,392.071747 180.991470,388.858154 
z"/>
<path fill="white" opacity="1.000000" stroke="none" 
	d="
M134.091583,594.227661 
	C136.952301,591.885925 137.780167,593.634949 138.265762,595.880005 
	C138.862961,598.640991 139.336517,601.428772 139.927704,604.191223 
	C143.473938,620.760986 156.872925,632.021057 173.782455,632.935486 
	C177.429230,633.132629 179.657150,632.404602 180.864258,628.540955 
	C182.494019,623.324524 186.799576,620.266418 191.338043,617.629883 
	C192.671356,616.855347 194.040176,616.270630 195.416885,617.475586 
	C196.072830,619.621338 194.499207,620.527405 193.328766,621.665588 
	C184.983490,629.780640 183.967316,639.911865 190.476593,649.652649 
	C198.041916,660.973511 209.585297,665.678711 222.102280,668.892700 
	C225.468826,669.757263 229.344269,669.725769 232.114929,673.046875 
	C230.148224,674.717285 228.219040,675.003601 226.275070,674.620911 
	C214.486557,672.299805 202.860641,669.464417 192.576294,662.842102 
	C184.500595,657.641968 178.920380,650.740784 178.421310,640.515869 
	C167.454330,641.934570 157.996307,639.232849 149.522949,633.454529 
	C138.814117,626.151794 130.966705,606.147095 134.091583,594.227661 
z"/>
<path fill="white" opacity="1.000000" stroke="none" 
	d="
M432.044739,658.889282 
	C436.457397,658.751282 440.115631,655.372620 445.171783,657.687073 
	C441.530579,662.269592 436.818542,664.119080 431.921844,665.269897 
	C411.383453,670.096619 390.889130,669.947266 370.025726,666.320129 
	C342.151947,661.474304 316.004242,652.226807 291.114471,639.104614 
	C284.918457,635.837952 279.298065,631.615051 274.570801,626.355286 
	C272.939819,624.540527 271.401978,622.612183 271.519928,619.779236 
	C274.534027,619.640808 276.185211,621.459045 277.848022,622.927734 
	C287.221191,631.206665 298.317780,636.491211 309.493713,641.760681 
	C325.677277,649.391418 342.323456,655.652100 359.908051,659.015747 
	C383.783447,663.582581 407.731506,665.669067 432.044739,658.889282 
z"/>
<path fill="white" opacity="1.000000" stroke="none" 
	d="
M339.753845,326.621460 
	C349.643158,324.963654 359.148865,325.968994 368.625946,325.898041 
	C370.163757,325.886536 371.854034,326.375671 371.756012,328.331146 
	C371.674072,329.966400 370.108032,330.127899 368.754425,330.357971 
	C360.393494,331.779297 351.906250,331.898468 343.495758,333.057312 
	C313.272156,337.221619 284.701508,345.872925 258.777832,362.338257 
	C250.908600,367.336334 243.055252,372.359711 235.160934,377.317841 
	C232.840775,378.775055 230.541687,380.371033 227.053864,381.165039 
	C228.054688,377.193848 230.369476,375.116119 232.569702,372.949371 
	C243.193848,362.486755 256.278931,355.829315 269.440186,349.376373 
	C279.297607,344.543335 289.241699,339.871002 299.603851,336.135620 
	C312.495483,331.488342 325.737427,328.423279 339.753845,326.621460 
z"/>
<path fill="white" opacity="1.000000" stroke="none" 
	d="
M299.515625,552.642090 
	C304.352600,532.736145 312.070404,514.626587 325.507355,499.446167 
	C337.882477,485.465240 351.812836,473.487000 370.139954,467.829620 
	C372.360321,467.144226 374.612915,466.473633 376.900635,466.121674 
	C379.135986,465.777832 381.574280,466.104370 381.977875,468.838074 
	C382.364136,471.454529 380.287628,472.555511 378.051697,473.188507 
	C375.019562,474.046936 371.908813,474.700775 368.972565,475.813721 
	C336.502838,488.121155 317.762512,512.414246 308.151459,544.968140 
	C304.630219,556.895020 301.331451,568.947815 296.191376,580.348694 
	C294.472046,584.162170 292.268066,587.584961 287.907074,589.510620 
	C292.365143,577.510681 296.412140,565.430420 299.515625,552.642090 
z"/>
<path fill="white" opacity="1.000000" stroke="none" 
	d="
M619.323914,596.879028 
	C619.059204,599.121887 619.717407,600.821960 620.312561,602.565613 
	C620.790405,603.965576 621.245911,605.450256 621.280762,606.907654 
	C621.345154,609.604675 621.153137,612.856628 618.026917,613.415039 
	C614.942200,613.965942 615.197021,610.445618 613.589111,607.263916 
	C612.708862,613.936523 607.263428,616.744812 605.513672,621.949036 
	C605.356750,622.415710 605.146606,623.177490 604.847900,623.237305 
	C599.191345,624.370605 598.463013,629.594604 596.113770,633.517395 
	C594.243591,636.640198 591.964478,635.646667 590.005798,633.554321 
	C587.016479,630.360840 588.078735,620.665161 591.558411,617.903931 
	C593.893677,616.050842 595.892395,617.212097 598.146667,618.649780 
	C598.981445,615.873108 600.058533,613.383179 599.675232,610.474670 
	C599.439697,608.687439 597.656433,606.367798 600.254150,605.153015 
	C602.467346,604.117981 603.576294,606.664612 605.009094,607.861816 
	C609.010132,600.883240 611.839111,593.577881 615.806030,587.188232 
	C619.965271,580.488831 621.908386,572.028625 627.816956,567.052795 
	C633.090759,562.611511 634.167480,556.961670 636.238037,551.276001 
	C639.577942,551.825195 640.092224,553.739380 639.924561,556.356384 
	C639.587280,561.620850 637.830078,566.389221 634.980591,570.732910 
	C630.457092,577.628601 626.101440,584.620605 623.329468,592.420166 
	C622.558655,594.589172 619.590332,594.140747 619.323914,596.879028 
z"/>
<path fill="white" opacity="1.000000" stroke="none" 
	d="
M259.967712,670.009766 
	C279.667419,683.920837 301.291199,692.897522 323.867981,699.734863 
	C332.295776,702.287231 340.923279,704.174011 349.420074,706.508789 
	C351.565826,707.098389 354.036163,707.486816 355.408722,710.577759 
	C351.441254,711.409851 347.636780,712.752686 343.820496,711.998718 
	C318.854279,707.066101 294.784607,699.477295 272.573669,686.768066 
	C264.743256,682.287415 257.478058,676.977783 251.329697,670.293152 
	C250.037262,668.888000 247.832214,667.290100 249.623276,665.252014 
	C251.342499,663.295715 253.300964,665.045105 254.912872,666.160767 
	C256.554596,667.297119 258.093414,668.582153 259.967712,670.009766 
z"/>
<path fill="white" opacity="1.000000" stroke="none" 
	d="
M256.529144,379.490845 
	C259.930603,378.679321 262.477051,376.354340 265.735962,376.594086 
	C268.603943,380.671387 267.789520,383.787476 264.378326,387.215637 
	C250.244644,401.419556 239.047501,417.570435 233.053177,436.927734 
	C231.925781,440.568359 231.170502,444.326355 230.301605,448.043793 
	C229.964035,449.487946 230.023987,451.339264 227.907150,451.147400 
	C226.003677,450.974884 225.843674,449.263397 225.707870,447.740173 
	C225.043823,440.292175 226.326370,433.170868 229.317078,426.338043 
	C235.550888,412.095673 244.670334,399.977631 256.019104,389.396973 
	C258.467926,387.113831 262.567169,386.692047 263.580261,382.522766 
	C260.123138,382.964386 257.486420,385.136902 254.445877,386.261932 
	C246.805939,389.088745 239.189255,391.978882 231.536270,394.769684 
	C227.885162,396.101135 224.425430,397.636932 222.196243,401.052094 
	C221.242859,402.512665 219.894302,403.215240 218.426392,402.050079 
	C217.048279,400.956238 217.272629,399.297974 218.111832,397.951202 
	C220.484833,394.143005 224.045486,391.706543 228.046951,389.899292 
	C237.163681,385.781738 246.682510,382.749634 256.529144,379.490845 
z"/>
<path fill="white" opacity="1.000000" stroke="none" 
	d="
M615.259583,624.275024 
	C631.277466,606.339661 642.357056,586.175293 647.552795,561.820923 
	C650.606445,566.391418 650.090393,570.277283 649.307861,573.998413 
	C643.817993,600.107544 630.360901,621.261658 609.298950,637.579773 
	C608.089417,638.516846 606.810120,639.886658 603.996948,639.024902 
	C606.736511,633.285339 611.528870,629.360352 615.259583,624.275024 
z"/>
<path fill="white" opacity="1.000000" stroke="none" 
	d="
M66.894913,488.904205 
	C77.921227,490.640747 88.679184,488.576874 99.219650,490.696045 
	C103.534729,491.563568 107.528465,493.061066 111.105736,495.629608 
	C112.262917,496.460449 113.109703,497.460541 112.434158,498.996246 
	C111.759697,500.529510 110.309425,500.838501 109.066795,500.278717 
	C92.949028,493.018036 75.541954,496.548218 58.844841,494.200714 
	C53.973831,493.515808 49.371834,492.249725 45.749176,488.692047 
	C44.508835,487.473938 42.852894,486.377411 43.503101,483.481415 
	C50.859249,486.880096 58.247810,489.799072 66.894913,488.904205 
z"/>
<path fill="white" opacity="1.000000" stroke="none" 
	d="
M512.571655,613.300537 
	C508.436707,623.587891 501.265137,630.964783 493.453400,638.615295 
	C491.396057,634.969727 492.922058,632.669067 494.283173,630.491211 
	C496.759552,626.528992 499.808380,623.000000 502.896088,619.492371 
	C505.432861,616.610596 507.188385,613.215759 508.315002,609.463135 
	C501.473663,609.397095 495.424835,607.767273 490.781525,602.139160 
	C492.143433,598.276245 494.335999,596.415344 498.586426,598.742249 
	C499.414612,599.195618 500.691711,599.770569 501.347473,599.447754 
	C506.400909,596.960205 509.239685,601.819458 512.648438,603.414062 
	C516.279785,605.112732 513.594971,609.647034 512.571655,613.300537 
z"/>
<path fill="white" opacity="1.000000" stroke="none" 
	d="
M269.873840,393.254852 
	C271.458435,388.214691 272.047302,383.149902 276.057587,379.610901 
	C277.952850,380.828064 277.484253,382.541931 277.077484,383.764648 
	C271.943085,399.198120 273.456604,414.580048 277.687561,429.808319 
	C279.401459,435.977112 276.814453,440.406311 273.576355,444.915924 
	C272.463196,446.466248 270.800659,446.653900 269.082794,446.282745 
	C267.272980,445.891693 266.158783,444.682281 265.913574,442.869873 
	C265.660980,441.002686 266.554626,439.386932 268.254517,438.900879 
	C271.617432,437.939178 271.825684,435.370819 272.022491,432.657898 
	C272.377045,427.770966 271.144073,423.047638 270.125702,418.380157 
	C268.322174,410.114197 268.142334,401.930542 269.873840,393.254852 
z"/>
<path fill="white" opacity="1.000000" stroke="none" 
	d="
M461.809875,505.284058 
	C458.439941,504.606262 459.237396,502.438141 459.874451,500.583740 
	C463.479553,490.089264 484.200470,477.920105 495.024963,479.881256 
	C496.155823,480.086212 497.321350,480.300476 498.081726,481.471497 
	C496.871704,483.278015 494.873688,483.781921 492.987274,484.178192 
	C480.686646,486.762146 470.709900,492.727631 463.996857,503.628204 
	C463.588593,504.291138 462.768921,504.700684 461.809875,505.284058 
z"/>
<path fill="white" opacity="1.000000" stroke="none" 
	d="
M251.321091,508.732361 
	C248.635223,512.481873 245.916351,515.837097 243.448105,519.367493 
	C238.893326,525.882263 236.476379,532.887329 239.285294,540.857239 
	C239.819000,542.371521 239.989227,543.866028 238.589294,544.938293 
	C237.299835,545.925903 235.760529,545.877563 234.339417,545.161682 
	C232.768448,544.370361 232.153183,542.895142 232.916138,541.400391 
	C234.127609,539.026978 232.645889,536.834106 232.850311,534.580505 
	C233.873123,523.304810 239.224518,514.528137 248.436050,508.069885 
	C249.336807,507.438354 250.681213,506.113220 251.321091,508.732361 
z"/>
<path fill="white" opacity="1.000000" stroke="none" 
	d="
M241.926544,580.045776 
	C242.776917,580.744873 243.782516,581.506226 243.664459,581.997864 
	C242.477859,586.940063 240.482910,591.905090 237.387146,595.585815 
	C234.318832,599.233887 229.037628,600.305298 223.928497,598.955139 
	C219.966095,597.908203 215.226501,598.012390 213.427353,591.498230 
	C218.458878,592.574707 222.760239,593.193542 226.862228,594.458801 
	C230.812912,595.677429 233.090561,595.163757 234.165955,590.727661 
	C235.233566,586.323669 237.901016,582.744080 241.926544,580.045776 
z"/>
<path fill="white" opacity="1.000000" stroke="none" 
	d="
M503.862854,505.924408 
	C505.694519,507.133575 507.248108,508.121796 507.633911,511.224457 
	C501.111481,510.837738 495.502838,507.612823 489.349640,507.263580 
	C483.290833,506.919678 477.322327,509.230072 470.957550,508.115967 
	C475.029755,501.314423 491.546173,500.376556 503.862854,505.924408 
z"/>
<path fill="white" opacity="1.000000" stroke="none" 
	d="
M188.667831,555.548035 
	C189.684402,559.528870 187.336502,560.628601 185.072281,558.915710 
	C177.829315,553.436401 169.565887,553.607422 161.246628,553.493347 
	C160.816360,553.487488 160.390839,553.134460 159.924210,552.925598 
	C165.780228,546.856750 180.495422,548.086243 188.667831,555.548035 
z"/>
<path fill="white" opacity="1.000000" stroke="none" 
	d="
M103.843971,510.313232 
	C106.281624,509.660004 107.732620,510.463135 108.574326,512.415710 
	C109.014755,513.437439 108.815498,514.390137 107.996414,515.131836 
	C106.472649,516.511780 104.590988,516.881165 102.965111,515.732788 
	C101.221504,514.501282 99.608444,514.880066 97.774315,515.091064 
	C91.336639,515.831726 87.082787,512.775635 85.179413,505.509125 
	C90.197227,507.143250 94.796387,508.551025 99.321175,510.167023 
	C100.765396,510.682831 102.036919,511.438385 103.843971,510.313232 
z"/>
<path fill="white" opacity="1.000000" stroke="none" 
	d="
M142.773849,602.687439 
	C143.026550,594.165039 146.986511,588.101257 153.111496,586.340698 
	C155.308182,585.709229 157.954407,585.311279 158.765686,587.727112 
	C159.800461,590.808472 156.810257,590.788147 154.772141,591.336731 
	C149.998611,592.621582 147.521454,596.029602 147.248657,601.189270 
	C147.122650,603.572144 148.066284,606.110535 146.296097,608.662354 
	C143.723099,607.584778 143.365402,605.277466 142.773849,602.687439 
z"/>
<path fill="white" opacity="1.000000" stroke="none" 
	d="
M457.929199,482.085815 
	C460.427673,477.979980 462.783173,474.235809 467.870087,472.684418 
	C467.990723,475.800140 465.889008,477.490173 464.788574,479.511963 
	C462.239716,484.194885 459.960419,488.955627 458.565063,494.118042 
	C458.188721,495.510437 458.046143,497.436462 455.966675,497.067413 
	C453.888214,496.698547 453.699890,494.800690 453.882538,493.108521 
	C454.299500,489.245728 456.152740,485.866089 457.929199,482.085815 
z"/>
<path fill="white" opacity="1.000000" stroke="none" 
	d="
M425.961609,473.024750 
	C431.277435,469.581665 431.665619,463.341644 433.914368,457.447601 
	C437.598724,461.316345 436.216583,464.802612 435.219299,468.104797 
	C434.057861,471.950195 431.471771,474.813049 427.699554,476.149536 
	C425.698730,476.858521 425.820465,474.998199 425.962555,473.315430 
	C425.995758,472.989441 425.961609,473.024750 425.961609,473.024750 
z"/>
<path fill="white" opacity="1.000000" stroke="none" 
	d="
M426.010010,472.969421 
	C424.979370,473.705505 424.048035,474.734894 421.805847,474.406830 
	C423.079407,469.084625 423.796448,463.782867 422.251862,457.896698 
	C428.185791,461.158417 429.059296,465.229858 426.077545,472.664062 
	C425.961609,473.024750 425.995758,472.989441 426.010010,472.969421 
z"/>
<path fill="white" opacity="1.000000" stroke="none" 
	d="
M26.846848,468.704803 
	C30.025978,469.570190 31.462025,471.374878 30.511587,474.240540 
	C29.863302,476.195160 28.316866,477.593201 26.032412,477.370941 
	C23.355276,477.110504 22.737459,474.850983 22.327980,472.789612 
	C21.692392,469.589935 23.979429,468.965515 26.846848,468.704803 
z"/>
<path fill="white" opacity="1.000000" stroke="none" 
	d="
M277.967407,375.699341 
	C275.871796,377.815918 273.922394,378.941162 271.823120,376.432281 
	C270.409576,374.742920 270.122284,372.734985 271.444946,370.920868 
	C272.853516,368.988861 274.856659,368.196747 277.113464,369.509247 
	C279.660065,370.990234 279.809052,373.066467 277.967407,375.699341 
z"/>
<path fill="white" opacity="1.000000" stroke="none" 
	d="
M482.771667,639.114990 
	C484.771881,641.276794 484.894867,643.186768 482.857574,644.987183 
	C481.474640,646.209229 479.931580,646.587769 478.294434,645.493469 
	C476.715485,644.438049 476.070404,642.872131 476.818298,641.152039 
	C477.905182,638.652344 479.820618,637.672058 482.771667,639.114990 
z"/>
<path fill="white" opacity="1.000000" stroke="none" 
	d="
M190.740082,562.112427 
	C189.977722,559.451660 190.861679,557.873230 193.172729,557.337463 
	C194.959717,556.923218 196.382339,557.759460 197.245117,559.378418 
	C198.079468,560.944031 197.577240,562.238464 196.239304,563.251343 
	C194.185165,564.806274 192.335327,564.839050 190.740082,562.112427 
z"/>
<path fill="white" opacity="1.000000" stroke="none" 
	d="
M394.392639,465.450439 
	C394.673737,468.169312 393.206573,469.343048 391.186920,469.920410 
	C390.172455,470.210419 389.282928,469.593292 388.679718,468.756531 
	C387.624268,467.292389 387.252380,465.656464 388.746826,464.370667 
	C390.731537,462.663025 392.641357,463.222870 394.392639,465.450439 
z"/>
<path fill="white" opacity="1.000000" stroke="none" 
	d="
M449.697266,483.357239 
	C447.757874,484.789307 447.048615,483.817352 446.830200,482.252502 
	C446.507629,479.941040 447.371521,478.041351 449.251221,476.667725 
	C450.139740,476.018433 451.166321,475.958771 451.883667,476.900970 
	C452.879913,478.209534 452.029633,479.384308 451.388794,480.530701 
	C450.906708,481.393188 450.409973,482.247467 449.697266,483.357239 
z"/>
<path fill="white" opacity="1.000000" stroke="none" 
	d="
M465.033264,649.158447 
	C466.757477,646.884399 468.644989,645.899414 470.494995,648.223633 
	C471.720001,649.762695 471.196075,651.557312 469.351410,652.339539 
	C466.751831,653.441895 465.221680,652.336243 465.033264,649.158447 
z"/>
<path fill="white" opacity="1.000000" stroke="none" 
	d="
M198.437347,612.005737 
	C200.574936,611.674194 202.154877,611.994324 202.268753,614.177185 
	C202.341507,615.571777 201.487427,616.652405 200.191162,617.224121 
	C198.984299,617.756409 197.900803,617.410217 197.205933,616.324158 
	C196.155197,614.681946 196.442963,613.236145 198.437347,612.005737 
z"/>
<path fill="white" opacity="1.000000" stroke="none" 
	d="
M455.822205,507.685913 
	C458.971130,506.834259 460.262878,508.148102 459.855713,510.822632 
	C459.614807,512.405212 458.183563,513.406067 456.555817,512.734497 
	C454.084595,511.714966 453.458557,510.001984 455.822205,507.685913 
z"/>
<path fill="white" opacity="1.000000" stroke="none" 
	d="
M376.608734,325.587952 
	C374.002045,326.029205 373.414429,324.563232 373.389191,322.772644 
	C373.374695,321.747833 374.018951,320.925842 375.119873,320.681763 
	C376.522644,320.370880 377.759338,320.659332 378.478973,322.000793 
	C379.421143,323.756989 378.400452,324.726288 376.608734,325.587952 
z"/>
<path fill="white" opacity="1.000000" stroke="none" 
	d="
M261.367432,602.330688 
	C263.641937,604.329773 263.323395,606.035339 261.155090,607.192017 
	C259.621735,608.010010 258.174591,607.390808 257.899872,605.529846 
	C257.566162,603.269348 258.145905,601.564453 261.367432,602.330688 
z"/>
<path fill="white" opacity="1.000000" stroke="none" 
	d="
M597.534790,644.597046 
	C597.036194,641.958435 598.099487,640.715149 600.327393,641.066772 
	C602.101135,641.346802 602.648132,642.887329 601.894592,644.422058 
	C600.875488,646.497681 599.349121,646.722778 597.534790,644.597046 
z"/>
<path fill="white" opacity="1.000000" stroke="none" 
	d="
M201.294861,567.107910 
	C198.802444,568.496033 197.326080,567.670105 197.047256,565.417786 
	C196.864258,563.939697 198.249878,562.881958 199.652939,562.979004 
	C202.147995,563.151672 202.601379,564.718140 201.294861,567.107910 
z"/>
<path fill="white" opacity="1.000000" stroke="none" 
	d="
M237.148972,547.828857 
	C238.528183,550.269165 237.697632,551.655151 235.486267,551.929138 
	C234.046234,552.107483 232.899811,550.913940 233.077606,549.487244 
	C233.351822,547.286804 234.717270,546.425415 237.148972,547.828857 
z"/>
<path fill="white" opacity="1.000000" stroke="none" 
	d="
M397.597534,463.622742 
	C400.177155,462.509216 401.179199,463.750427 401.443573,465.814758 
	C401.611450,467.125977 400.870056,468.190643 399.504822,467.917999 
	C397.373444,467.492249 396.729889,465.961517 397.597534,463.622742 
z"/>
</svg>