<svg version="1.1" id="Layer_1" xmlns="http://www.w3.org/2000/svg" xmlns:xlink="http://www.w3.org/1999/xlink" x="0px" y="0px"
	 width="100%" viewBox="0 0 333 100" enable-background="new 0 0 333 100" xml:space="preserve">
<path fill="none" opacity="1.000000" stroke="#ffffff" stroke-linecap="round" stroke-linejoin="round" stroke-width="3.000000"
	d="
M296.500000,17.500000 
	C297.478302,13.520436 296.636963,8.713770 301.505432,6.502412 
	C308.305206,13.073050 310.905243,21.361563 310.387177,30.493601 
	C310.042053,36.577034 312.212921,40.932892 316.442963,45.058495 
	C327.650146,55.989017 331.874847,69.615875 330.410217,84.991447 
	C329.987366,89.430542 327.973419,93.230904 323.533936,95.564575 
	C315.048157,100.025238 306.536774,102.282829 296.949280,99.155533 
	C294.111694,98.229965 290.835693,98.366943 288.003235,96.993301 
	C281.531342,93.854607 278.054260,87.076866 279.500031,80.500008 
	C280.875854,74.241035 287.957275,67.949867 293.998383,67.479256 
	C297.479279,67.208099 299.154602,69.313728 300.543427,71.989792 
	C299.242828,74.205589 298.490479,76.614128 295.549561,77.641846 
	C293.807648,78.250580 291.960144,79.938004 292.509644,82.497932 
	C293.092743,85.214645 294.773712,86.979912 297.506287,87.464508 
	C299.473969,87.813454 301.500000,87.833328 303.500000,88.000000 
"/>
<path fill="none" opacity="1.000000" stroke="#ffffff" stroke-linecap="round" stroke-linejoin="round" stroke-width="3.000000"
	d="
M142.500000,15.500000 
	C136.588608,15.738235 131.847153,13.491169 127.925224,9.066273 
	C127.097603,8.132512 125.621361,7.231925 123.691383,7.521837 
	C120.430984,11.429107 121.841232,16.490374 121.109009,21.017630 
	C120.224060,26.489201 119.396606,32.061878 121.902779,37.544441 
	C122.858887,39.636017 122.272911,42.200230 120.483414,43.983353 
	C113.211014,51.229820 108.911812,60.024384 107.041069,70.007698 
	C105.987213,75.631660 105.325020,81.306335 106.966743,87.009575 
	C108.045891,90.758438 109.863823,93.655434 113.478195,95.541786 
	C124.666824,101.381195 136.185684,102.293274 147.980652,97.947464 
	C154.249588,95.637703 158.134460,89.117836 157.499985,83.000000 
	C156.728897,75.564774 151.374634,68.715851 144.984833,67.585724 
	C142.474838,67.141792 139.556412,66.849571 137.981903,69.990936 
	C136.535522,72.876678 138.190491,74.670837 139.994492,76.505417 
	C142.058899,78.604805 145.710709,79.726837 144.044540,84.017296 
	C142.292480,88.528969 138.576706,87.964844 135.000000,87.999336 
	C134.500046,88.004158 134.000000,88.000000 133.500000,88.000000 
"/>
<path fill="none" opacity="1.000000" stroke="#ffffff" stroke-linecap="round" stroke-linejoin="round" stroke-width="3.000000"
	d="
M28.500000,86.500000 
	C25.438036,87.448692 22.460047,87.133705 19.496376,86.009552 
	C14.539170,84.129234 13.516522,81.736328 15.494452,76.497902 
	C15.866513,75.512527 16.102772,74.472916 16.512835,73.505440 
	C17.470230,71.246635 17.108320,69.347466 14.989352,68.016960 
	C13.090374,66.824585 11.095188,67.320854 9.528412,68.536613 
	C2.435192,74.040703 1.479152,84.956238 9.991128,92.509995 
	C15.354854,97.269913 21.895540,97.878601 28.492836,97.401039 
	C34.506214,96.965736 40.502243,96.981720 46.498672,97.080536 
	C48.962925,97.121132 51.140987,96.153580 53.500000,96.000000 
"/>
<path fill="none" opacity="1.000000" stroke="#ffffff" stroke-linecap="round" stroke-linejoin="round" stroke-width="3.000000"
	d="
M214.500000,96.000000 
	C217.928070,97.088547 221.468521,97.253654 224.997726,96.971581 
	C232.838348,96.344894 240.646072,98.257622 248.505249,97.033707 
	C258.180603,95.526962 266.989014,87.065567 264.048676,75.487640 
	C263.235718,72.286453 261.688446,69.798271 258.990570,68.014252 
	C257.453125,66.997581 255.640091,66.371788 254.039062,67.552948 
	C252.470963,68.709839 251.048386,70.199898 252.457062,72.526009 
	C252.752457,73.013779 252.323929,73.892960 252.526443,74.491043 
	C255.480972,83.216309 252.850174,86.562004 243.498108,86.033363 
	C242.178421,85.958771 240.833328,86.333344 239.500000,86.500008 
"/>
<path fill="none" opacity="1.000000" stroke="#ffffff" stroke-linecap="round" stroke-linejoin="round" stroke-width="3.000000"
	d="
M222.000000,20.500000 
	C222.027573,16.384295 221.761597,12.317513 220.247955,8.351103 
	C214.900528,9.346588 212.456650,14.010610 208.934937,16.062574 
	C205.166672,15.982341 201.833328,15.501913 198.125763,16.630028 
	C195.094696,13.616673 192.117752,10.105076 187.052567,8.736291 
	C184.408539,14.861513 184.696198,21.265238 185.098373,27.493649 
	C185.733948,37.336628 185.261414,47.168053 185.505417,56.999866 
	C185.799728,68.859894 187.994583,80.456558 190.543259,91.990440 
	C190.963379,93.891685 191.227448,95.666664 190.500000,97.500000 
"/>
<path fill="none" opacity="1.000000" stroke="#ffffff" stroke-linecap="round" stroke-linejoin="round" stroke-width="3.000000"
	d="
M65.500000,16.500000 
	C64.321648,12.954132 63.384300,9.268739 59.680454,6.786036 
	C55.743874,10.896679 53.827080,15.794038 53.462463,21.497601 
	C53.142094,26.509083 52.746864,31.541224 51.921013,36.486809 
	C51.273365,40.365238 48.295494,43.002728 45.477154,45.473946 
	C38.409027,51.671513 33.839352,59.301994 32.027874,68.505486 
	C30.857342,74.452545 29.643118,80.443787 31.500000,86.500000 
"/>
<path fill="none" opacity="1.000000" stroke="#ffffff" stroke-linecap="round" stroke-linejoin="round" stroke-width="4.000000"
	d="
M156.500000,69.500000 
	C159.493546,50.802265 159.493546,14.219504 156.425323,7.332381 
	C152.304474,9.088931 148.859222,11.615698 146.500000,15.500000 
"/>
<path fill="none" opacity="1.000000" stroke="#ffffff" stroke-linecap="round" stroke-linejoin="round" stroke-width="3.000000"
	d="
M222.000000,24.500000 
	C223.346512,29.220709 223.565704,33.920673 221.485413,38.493366 
	C219.784485,42.232243 222.635605,44.421425 224.581772,46.420395 
	C230.692856,52.697361 234.367493,60.308849 236.322037,68.542252 
	C237.694473,74.323509 238.045547,80.500000 236.500000,86.500000 
"/>
<path fill="none" opacity="1.000000" stroke="#ffffff" stroke-linecap="round" stroke-linejoin="round" stroke-width="3.000000"
	d="
M86.500000,26.500000 
	C86.188148,31.679197 83.256348,35.330093 79.397629,38.475628 
	C81.968468,55.753128 81.496239,72.936188 77.906410,89.980286 
	C77.374481,92.505836 77.020363,94.958267 77.000000,97.500000 
"/>
<path fill="none" opacity="1.000000" stroke="#ffffff" stroke-linecap="round" stroke-linejoin="round" stroke-width="3.000000"
	d="
M215.500000,62.500000 
	C216.508713,69.704742 214.214859,76.339714 212.012497,83.004128 
	C210.438339,87.767517 208.083450,92.321869 208.000000,97.500000 
"/>
<path fill="none" opacity="1.000000" stroke="#ffffff" stroke-linecap="round" stroke-linejoin="round" stroke-width="3.000000"
	d="
M53.500000,63.500000 
	C52.840725,71.672501 54.329685,79.523865 57.574764,86.967407 
	C59.067936,90.392433 59.904026,93.884567 60.500000,97.500000 
"/>
<path fill="none" opacity="1.000000" stroke="#ffffff" stroke-linecap="round" stroke-linejoin="round" stroke-width="3.000000"
	d="
M276.500000,30.500000 
	C278.579681,36.468838 278.592529,36.485703 284.452545,40.963726 
	C282.902740,49.099487 282.390717,57.267677 283.038025,65.497009 
	C283.079193,66.019981 283.666687,66.499992 284.000000,66.999992 
"/>
<path fill="none" opacity="1.000000" stroke="#ffffff" stroke-linecap="round" stroke-linejoin="round" stroke-width="4.000000"
	d="
M68.000000,74.500000 
	C68.988335,82.148804 68.389969,89.832100 68.500000,97.500000 
"/>
<path fill="none" opacity="1.000000" stroke="#ffffff" stroke-linecap="round" stroke-linejoin="round" stroke-width="3.000000"
	d="
M200.000000,75.000000 
	C200.000000,82.166664 200.000000,89.333336 200.000000,96.500000 
"/>
<path fill="none" opacity="1.000000" stroke="#ffffff" stroke-linecap="round" stroke-linejoin="round" stroke-width="3.000000"
	d="
M290.500000,13.500000 
	C285.908203,14.194818 282.886230,16.934946 281.026184,21.011950 
	C279.903290,23.473303 278.552795,25.716047 276.500000,27.500000 
"/>
<path fill="none" opacity="1.000000" stroke="#ffffff" stroke-linecap="round" stroke-linejoin="round" stroke-width="3.000000"
	d="
M86.500000,22.500000 
	C83.343010,22.120754 81.852921,19.655140 79.950005,17.545088 
	C77.434113,14.755332 75.003494,11.524261 70.500000,12.000000 
"/>
<path fill="none" opacity="1.000000" stroke="#ffffff" stroke-linecap="round" stroke-linejoin="round" stroke-width="3.000000"
	d="
M143.500000,29.500000 
	C145.757507,30.728289 148.091232,30.889383 150.500000,30.000000 
"/>
<path fill="none" opacity="1.000000" stroke="#ffffff" stroke-linecap="round" stroke-linejoin="round" stroke-width="3.000000"
	d="
M284.000000,11.000000 
	C285.480743,9.820493 285.104950,7.403308 287.192566,6.408493 
	C289.923737,7.182464 292.415710,8.426248 293.500000,11.500000 
"/>
<path fill="none" opacity="1.000000" stroke="#ffffff" stroke-linecap="round" stroke-linejoin="round" stroke-width="3.000000"
	d="
M66.499992,9.499994 
	C68.153030,7.819696 69.806068,6.139399 71.627609,4.287817 
	C73.056374,6.456826 76.424591,7.438040 75.000000,11.000000 
"/>
</svg>